<svg fill="#FF921B" id="user_1_" data-name="user (1)" xmlns="http://www.w3.org/2000/svg" width="25.372" height="30.411" viewBox="0 0 25.372 30.411">
  <path fill="#FF921B" id="Path_676" data-name="Path 676" d="M18.753,14.649A7.088,7.088,0,0,0,23.932,12.5a7.088,7.088,0,0,0,2.146-5.179,7.088,7.088,0,0,0-2.146-5.179A7.089,7.089,0,0,0,18.753,0a7.087,7.087,0,0,0-5.179,2.146,7.087,7.087,0,0,0-2.146,5.179A7.088,7.088,0,0,0,13.574,12.5,7.09,7.09,0,0,0,18.753,14.649ZM14.834,3.406a5.294,5.294,0,0,1,3.919-1.624,5.3,5.3,0,0,1,3.919,1.624A5.3,5.3,0,0,1,24.3,7.324a5.3,5.3,0,0,1-1.624,3.919,5.3,5.3,0,0,1-3.919,1.624,5.3,5.3,0,0,1-3.919-1.624A5.294,5.294,0,0,1,13.21,7.324a5.3,5.3,0,0,1,1.624-3.919Zm0,0" transform="translate(-6.258 0)" />
  <path fill="#FF921B" id="Path_677" data-name="Path 677" d="M25.31,41.169a18.09,18.09,0,0,0-.246-1.922,15.14,15.14,0,0,0-.473-1.932,9.544,9.544,0,0,0-.794-1.8,6.792,6.792,0,0,0-1.2-1.561,5.28,5.28,0,0,0-1.72-1.081,5.946,5.946,0,0,0-2.2-.4,2.229,2.229,0,0,0-1.19.5c-.357.233-.774.5-1.24.8a7.106,7.106,0,0,1-1.6.707,6.231,6.231,0,0,1-3.925,0,7.085,7.085,0,0,1-1.6-.707c-.461-.295-.879-.564-1.241-.8a2.227,2.227,0,0,0-1.19-.5,5.938,5.938,0,0,0-2.2.4,5.276,5.276,0,0,0-1.721,1.081,6.794,6.794,0,0,0-1.2,1.561,9.561,9.561,0,0,0-.794,1.8,15.176,15.176,0,0,0-.472,1.932A17.969,17.969,0,0,0,.061,41.17C.02,41.75,0,42.355,0,42.966a5.05,5.05,0,0,0,1.5,3.82A5.4,5.4,0,0,0,5.364,48.2H20.007a5.4,5.4,0,0,0,3.864-1.41,5.048,5.048,0,0,0,1.5-3.821c0-.613-.021-1.217-.061-1.8Zm-2.667,4.326a3.635,3.635,0,0,1-2.636.919H5.364a3.635,3.635,0,0,1-2.636-.918,3.3,3.3,0,0,1-.946-2.529c0-.57.019-1.132.056-1.673a16.207,16.207,0,0,1,.223-1.731,13.384,13.384,0,0,1,.416-1.7,7.784,7.784,0,0,1,.646-1.465A5.036,5.036,0,0,1,4,35.241a3.5,3.5,0,0,1,1.145-.712,4.1,4.1,0,0,1,1.4-.271c.062.033.174.1.354.214.366.239.789.511,1.255.809a8.83,8.83,0,0,0,2.014.9,8.012,8.012,0,0,0,5.022,0,8.84,8.84,0,0,0,2.015-.9c.478-.305.888-.57,1.255-.809.18-.117.291-.181.354-.214a4.1,4.1,0,0,1,1.4.271,3.508,3.508,0,0,1,1.144.712,5.022,5.022,0,0,1,.88,1.154,7.758,7.758,0,0,1,.647,1.465,13.353,13.353,0,0,1,.416,1.7,16.344,16.344,0,0,1,.223,1.731h0c.038.538.057,1.1.057,1.672a3.3,3.3,0,0,1-.947,2.529Zm0,0" transform="translate(0 -17.785)"/>
</svg>
